<svg width="97" height="96" viewBox="0 0 97 96" fill="none" xmlns="http://www.w3.org/2000/svg">
<g clip-path="url(#clip0_645_5886)">
<path d="M76.3184 44.9967C76.1984 44.7095 76.0266 44.4482 75.8076 44.2292L68.7474 37.1691C67.827 36.2509 66.3391 36.2509 65.4187 37.1691C64.4982 38.0895 64.4982 39.5797 65.4187 40.4978L68.4626 43.5418H55.3121C54.0103 43.5418 52.958 44.5964 52.958 45.8959C52.958 47.1954 54.0103 48.25 55.3121 48.25H68.4625L65.4186 51.294C64.4981 52.2144 64.4981 53.7046 65.4186 54.6227C65.8776 55.0841 66.4803 55.3125 67.083 55.3125C67.6857 55.3125 68.2884 55.0842 68.7474 54.6227L75.8076 47.5625C76.0266 47.3459 76.1984 47.0846 76.3184 46.795C76.5561 46.2209 76.5561 45.5711 76.3184 44.9967Z" fill="#E25B26"/>
<path d="M60.0208 52.9584C58.7189 52.9584 57.6666 54.013 57.6666 55.3125V67.0834H48.25V29.4166C48.25 28.3784 47.5673 27.4603 46.5714 27.1614L38.3954 24.7084H57.6666V36.4792C57.6666 37.7787 58.7189 38.8334 60.0208 38.8334C61.3226 38.8334 62.3749 37.7787 62.3749 36.4792V22.3542C62.3749 21.0546 61.3226 20 60.0208 20H22.3541C22.2694 20 22.194 20.0353 22.1117 20.0447C22.001 20.0565 21.8998 20.0753 21.7939 20.1012C21.5467 20.1648 21.323 20.2613 21.1136 20.3931C21.0618 20.4261 20.9982 20.4284 20.9488 20.466C20.9298 20.4803 20.9228 20.5062 20.9039 20.5203C20.6473 20.7227 20.4331 20.9699 20.2778 21.2642C20.2448 21.3278 20.2377 21.3961 20.2119 21.4619C20.1365 21.6408 20.0542 21.8151 20.0259 22.0128C20.0141 22.0834 20.0353 22.1493 20.033 22.2176C20.0307 22.2647 20 22.3071 20 22.3541V69.4375C20 70.5604 20.7933 71.5257 21.8928 71.7446L45.4344 76.453C45.5874 76.486 45.7428 76.5001 45.8958 76.5001C46.4348 76.5001 46.9645 76.3142 47.3883 75.9657C47.9321 75.5184 48.2499 74.8521 48.2499 74.1459V71.7917H60.0208C61.3226 71.7917 62.3749 70.7371 62.3749 69.4376V55.3125C62.3749 54.013 61.3226 52.9584 60.0208 52.9584Z" fill="#E25B26"/>
</g>
<defs>
<clipPath id="clip0_645_5886">
<rect width="56.5" height="56.5" fill="white" transform="translate(20 20)"/>
</clipPath>
</defs>
</svg>
