<svg width="20" height="20" viewBox="0 0 20 20" fill="none" xmlns="http://www.w3.org/2000/svg">
<path d="M3.05841 9.81354H13.477C13.625 9.81354 13.767 9.75474 13.8717 9.65007C13.9764 9.5454 14.0352 9.40343 14.0352 9.25541C14.0352 9.10738 13.9764 8.96541 13.8717 8.86074C13.767 8.75607 13.625 8.69727 13.477 8.69727H3.05841C2.91038 8.69727 2.76842 8.75607 2.66375 8.86074C2.55908 8.96541 2.50027 9.10738 2.50027 9.25541C2.50027 9.40343 2.55908 9.5454 2.66375 9.65007C2.76842 9.75474 2.91038 9.81354 3.05841 9.81354Z" fill="#202020"/>
<path d="M6.03536 12.7891C6.14574 12.7892 6.25366 12.7565 6.34547 12.6952C6.43727 12.6339 6.50885 12.5468 6.55115 12.4448C6.59345 12.3429 6.60456 12.2307 6.58309 12.1224C6.56162 12.0141 6.50852 11.9147 6.43052 11.8366L3.85489 9.25423L6.43052 6.6719C6.53205 6.56649 6.58812 6.42542 6.58664 6.27908C6.58517 6.13273 6.52627 5.99282 6.42264 5.88948C6.319 5.78614 6.17892 5.72764 6.03258 5.72658C5.88623 5.72552 5.74531 5.78198 5.64019 5.88381L2.67089 8.86055C2.56655 8.9653 2.50797 9.10713 2.50797 9.25497C2.50797 9.40282 2.56655 9.54464 2.67089 9.64939L5.64019 12.6261C5.69207 12.678 5.75369 12.7191 5.82151 12.7471C5.88932 12.775 5.962 12.7893 6.03536 12.7891Z" fill="#202020"/>
<path d="M9.75581 17.2558H16.4535C16.9961 17.2554 17.5164 17.0397 17.9002 16.656C18.2839 16.2723 18.4996 15.752 18.5 15.2093V4.04651C18.4996 3.50386 18.2839 2.98355 17.9002 2.59984C17.5164 2.21613 16.9961 2.00039 16.4535 2H9.75581C9.21317 2.00039 8.69286 2.21613 8.30915 2.59984C7.92544 2.98355 7.7097 3.50386 7.7093 4.04651V5.53488C7.7093 5.68291 7.76811 5.82488 7.87278 5.92955C7.97745 6.03422 8.11941 6.09302 8.26744 6.09302C8.41547 6.09302 8.55743 6.03422 8.66211 5.92955C8.76678 5.82488 8.82558 5.68291 8.82558 5.53488V4.04651C8.82598 3.79992 8.92411 3.56354 9.09848 3.38917C9.27284 3.21481 9.50922 3.11667 9.75581 3.11628H16.4535C16.7001 3.11667 16.9365 3.21481 17.1108 3.38917C17.2852 3.56354 17.3833 3.79992 17.3837 4.04651V15.2093C17.3833 15.4559 17.2852 15.6923 17.1108 15.8666C16.9365 16.041 16.7001 16.1391 16.4535 16.1395H9.75581C9.50922 16.1391 9.27284 16.041 9.09848 15.8666C8.92411 15.6923 8.82598 15.4559 8.82558 15.2093V12.9767C8.82558 12.8287 8.76678 12.6868 8.66211 12.5821C8.55743 12.4774 8.41547 12.4186 8.26744 12.4186C8.11941 12.4186 7.97745 12.4774 7.87278 12.5821C7.76811 12.6868 7.7093 12.8287 7.7093 12.9767V15.2093C7.7097 15.752 7.92544 16.2723 8.30915 16.656C8.69286 17.0397 9.21317 17.2554 9.75581 17.2558Z" fill="#202020"/>
</svg>
